<svg width="28" height="28" viewBox="0 0 28 28" fill="none" xmlns="http://www.w3.org/2000/svg">
<path d="M2.3335 6.99999C2.3335 4.80011 2.3335 3.70016 3.01691 3.01675C3.70033 2.33333 4.80027 2.33333 7.00016 2.33333C9.20005 2.33333 10.3 2.33333 10.9834 3.01675C11.6668 3.70016 11.6668 4.80011 11.6668 6.99999V21C11.6668 23.1999 11.6668 24.2998 10.9834 24.9832C10.3 25.6667 9.20005 25.6667 7.00016 25.6667C4.80027 25.6667 3.70033 25.6667 3.01691 24.9832C2.3335 24.2998 2.3335 23.1999 2.3335 21V6.99999Z" fill="url(#paint0_linear_50_414)"/>
<path d="M16.3335 6.99999C16.3335 4.80011 16.3335 3.70016 17.0169 3.01675C17.7003 2.33333 18.8003 2.33333 21.0002 2.33333C23.2001 2.33333 24.3 2.33333 24.9834 3.01675C25.6668 3.70016 25.6668 4.80011 25.6668 6.99999V21C25.6668 23.1999 25.6668 24.2998 24.9834 24.9832C24.3 25.6667 23.2001 25.6667 21.0002 25.6667C18.8003 25.6667 17.7003 25.6667 17.0169 24.9832C16.3335 24.2998 16.3335 23.1999 16.3335 21V6.99999Z" fill="url(#paint1_linear_50_414)"/>
<defs>
<linearGradient id="paint0_linear_50_414" x1="2.3335" y1="14" x2="25.6668" y2="14" gradientUnits="userSpaceOnUse">
<stop stop-color="#44AAED"/>
<stop offset="1" stop-color="#46E4E3"/>
</linearGradient>
<linearGradient id="paint1_linear_50_414" x1="2.3335" y1="14" x2="25.6668" y2="14" gradientUnits="userSpaceOnUse">
<stop stop-color="#44AAED"/>
<stop offset="1" stop-color="#46E4E3"/>
</linearGradient>
</defs>
</svg>

